<svg width="24" height="24" viewBox="0 0 24 24" fill="none" xmlns="http://www.w3.org/2000/svg">
<rect width="24" height="24" rx="12" fill="#FF496A"/>
<g clip-path="url(#clip0_67_9913)">
<path d="M10.5817 4.0419L5.81559 6.79358C5.38474 7.04237 5.02696 7.40018 4.7782 7.83105C4.52944 8.26192 4.39847 8.75067 4.39844 9.24819V14.7515C4.39847 15.2491 4.52944 15.7378 4.7782 16.1687C5.02696 16.5996 5.38474 16.9574 5.81559 17.2062L10.5817 19.9578C11.0126 20.2066 11.5014 20.3375 11.9989 20.3375C12.4964 20.3375 12.9851 20.2066 13.416 19.9578L18.1821 17.2062C18.613 16.9574 18.9708 16.5996 19.2195 16.1687C19.4683 15.7378 19.5993 15.2491 19.5993 14.7515V9.24819C19.5993 8.75067 19.4683 8.26192 19.2195 7.83105C18.9708 7.40018 18.613 7.04237 18.1821 6.79358L13.416 4.0419C12.9851 3.79317 12.4964 3.66223 11.9989 3.66223C11.5014 3.66223 11.0126 3.79317 10.5817 4.0419Z" fill="#F7F5FB"/>
<path d="M12.3293 20.3185C11.7232 20.3897 11.1103 20.2633 10.5817 19.9582L5.81559 17.2061C5.38476 16.9574 5.027 16.5996 4.77824 16.1688C4.52948 15.738 4.39849 15.2493 4.39844 14.7519V9.24815C4.39847 8.98393 4.43539 8.721 4.50812 8.46698C5.34203 13.4335 8.25859 17.6937 12.3293 20.3185Z" fill="#E4E3E8"/>
<path d="M15.0278 12.9878C15.0278 13.5998 14.6464 14.3508 14.1883 14.6566C13.7439 14.9534 13.3931 14.7178 13.3931 14.1381C13.3931 13.5584 13.7446 12.8289 14.1883 12.5002C14.6464 12.1616 15.0278 12.3754 15.0278 12.9878Z" fill="#F17B89"/>
<path d="M15.0278 17.0248C15.0278 17.6368 14.6464 18.3881 14.1883 18.694C13.7439 18.9907 13.3931 18.7552 13.3931 18.1754C13.3931 17.5957 13.7446 16.8662 14.1883 16.5375C14.6464 16.1986 15.0278 16.4127 15.0278 17.0248Z" fill="#F17B89"/>
<path d="M18.7544 10.5764C18.7544 11.1885 18.3729 11.9398 17.9149 12.2456C17.4705 12.5424 17.1196 12.3065 17.1196 11.7267C17.1196 11.147 17.4712 10.4179 17.9149 10.0892C18.3729 9.75061 18.7544 9.96436 18.7544 10.5764Z" fill="#F17B89"/>
<path d="M18.7544 14.6138C18.7544 15.2258 18.3729 15.9768 17.9149 16.2826C17.4705 16.5797 17.1196 16.3438 17.1196 15.7641C17.1196 15.1843 17.4712 14.4548 17.9149 14.1261C18.3729 13.7876 18.7544 14.0013 18.7544 14.6138Z" fill="#F17B89"/>
<path d="M6.96191 15.7528C6.96191 15.1404 6.58012 14.3895 6.12238 14.0836C5.67801 13.7869 5.32715 14.0224 5.32715 14.6022C5.32715 15.1819 5.67871 15.9114 6.12238 16.2401C6.58012 16.5786 6.96191 16.3649 6.96191 15.7528Z" fill="#3F4449"/>
<path d="M10.3691 14.1373C10.3691 13.5253 9.98734 12.774 9.52961 12.4681C9.08523 12.1714 8.73438 12.4073 8.73438 12.987C8.73438 13.5667 9.08594 14.2959 9.52961 14.6246C9.98734 14.9635 10.3691 14.7494 10.3691 14.1373Z" fill="#4A5058"/>
<path d="M11.9988 8.50114C12.6121 8.50114 13.1094 8.00391 13.1094 7.39055C13.1094 6.77719 12.6121 6.27997 11.9988 6.27997C11.3854 6.27997 10.8882 6.77719 10.8882 7.39055C10.8882 8.00391 11.3854 8.50114 11.9988 8.50114Z" fill="#4A5058"/>
<path d="M4.39844 12.1658C4.34249 12.1658 4.28884 12.1436 4.24928 12.1041C4.20972 12.0645 4.1875 12.0108 4.1875 11.9549V11.681C4.1875 11.6251 4.20972 11.5714 4.24928 11.5319C4.28884 11.4923 4.34249 11.4701 4.39844 11.4701C4.45438 11.4701 4.50803 11.4923 4.54759 11.5319C4.58715 11.5714 4.60938 11.6251 4.60938 11.681V11.9549C4.60938 12.0108 4.58715 12.0645 4.54759 12.1041C4.50803 12.1436 4.45438 12.1658 4.39844 12.1658Z" fill="black"/>
<path d="M11.9989 20.5488C11.4647 20.549 10.94 20.4082 10.4777 20.1407L5.71012 17.3886C5.24781 17.1208 4.86389 16.7363 4.5967 16.2736C4.32951 15.8109 4.18841 15.2862 4.1875 14.7519V12.53C4.1875 12.4741 4.20972 12.4204 4.24928 12.3809C4.28884 12.3413 4.34249 12.3191 4.39844 12.3191C4.45438 12.3191 4.50803 12.3413 4.54759 12.3809C4.58715 12.4204 4.60938 12.4741 4.60938 12.53V14.7519C4.61023 15.2122 4.73182 15.6642 4.96198 16.0627C5.19215 16.4613 5.52285 16.7925 5.92105 17.0233L10.6872 19.7754C11.086 20.0057 11.5384 20.127 11.9989 20.127C12.4594 20.127 12.9118 20.0057 13.3105 19.7754L18.0767 17.0233C18.4749 16.7925 18.8056 16.4613 19.0358 16.0627C19.2659 15.6642 19.3875 15.2122 19.3884 14.7519V9.24819C19.3886 8.78761 19.2675 8.33509 19.0372 7.93621C18.807 7.53732 18.4757 7.20615 18.0767 6.97604L13.3105 4.22436C12.9115 3.99494 12.4592 3.8742 11.9989 3.8742C11.5385 3.8742 11.0863 3.99494 10.6872 4.22436L5.92105 6.97604C5.52274 7.20691 5.19198 7.53825 4.96181 7.93696C4.73164 8.33568 4.61011 8.78781 4.60938 9.24819V11.1058C4.60938 11.1618 4.58715 11.2154 4.54759 11.255C4.50803 11.2946 4.45438 11.3168 4.39844 11.3168C4.34249 11.3168 4.28884 11.2946 4.24928 11.255C4.20972 11.2154 4.1875 11.1618 4.1875 11.1058V9.24819C4.18852 8.71392 4.32966 8.18925 4.59684 7.72658C4.86401 7.26391 5.24788 6.87941 5.71012 6.61147L10.4763 3.85909C10.9395 3.59271 11.4645 3.45251 11.9989 3.45251C12.5332 3.45251 13.0582 3.59271 13.5215 3.85909L18.2876 6.61077C18.7505 6.87797 19.1349 7.26231 19.4022 7.72515C19.6694 8.18798 19.8102 8.71302 19.8102 9.24749V14.7519C19.8093 15.2862 19.6682 15.8109 19.401 16.2736C19.1338 16.7363 18.7499 17.1208 18.2876 17.3886L13.5215 20.1407C13.1049 20.3802 12.6377 20.5182 12.1578 20.5435C12.1043 20.5471 12.0514 20.5488 11.9989 20.5488Z" fill="black"/>
<path d="M13.8287 14.9962C13.7325 14.9968 13.6377 14.9736 13.5527 14.9287C13.314 14.8011 13.1821 14.5202 13.1821 14.1381C13.1821 13.4898 13.5688 12.6967 14.061 12.3307C14.44 12.0494 14.722 12.1222 14.8563 12.1901C14.9987 12.2604 15.237 12.4608 15.237 12.9874C15.237 13.6722 14.8271 14.4826 14.3036 14.832C14.119 14.9565 13.9584 14.9962 13.8287 14.9962ZM14.5954 12.5511C14.5184 12.5511 14.4196 12.5922 14.3142 12.6699C13.9229 12.9593 13.6044 13.6192 13.6044 14.1381C13.6044 14.349 13.661 14.5079 13.752 14.5568C13.8248 14.5958 13.9415 14.5684 14.0716 14.4812C14.4759 14.2112 14.8172 13.5274 14.8172 12.9874C14.8172 12.7744 14.7603 12.613 14.6685 12.5655C14.6456 12.5551 14.6206 12.5501 14.5954 12.5511Z" fill="black"/>
<path d="M13.8287 19.0336C13.7325 19.034 13.6378 19.0108 13.5527 18.9661C13.314 18.8381 13.1821 18.5576 13.1821 18.1754C13.1821 17.5271 13.5688 16.734 14.061 16.368C14.44 16.0868 14.722 16.1596 14.8563 16.2274C14.9987 16.2977 15.237 16.4981 15.237 17.0251C15.237 17.7099 14.8271 18.5199 14.3036 18.8698C14.119 18.9939 13.9584 19.0336 13.8287 19.0336ZM14.5954 16.5881C14.5184 16.5881 14.4196 16.6296 14.3142 16.7069C13.9229 16.9966 13.6044 17.6562 13.6044 18.1754C13.6044 18.3864 13.661 18.5453 13.752 18.5938C13.8248 18.6328 13.9415 18.6054 14.0716 18.5185C14.4759 18.2485 14.8172 17.5644 14.8172 17.0248C14.8172 16.8114 14.7603 16.65 14.6685 16.6029C14.6457 16.5923 14.6206 16.5872 14.5954 16.5881Z" fill="black"/>
<path d="M17.5552 12.5852C17.459 12.5857 17.3642 12.5624 17.2792 12.5173C17.0402 12.3897 16.9087 12.1092 16.9087 11.7267C16.9087 11.0787 17.2954 10.2853 17.7876 9.91928C18.1666 9.63803 18.4485 9.71116 18.5828 9.77866C18.7235 9.84897 18.9636 10.0494 18.9636 10.5764C18.9653 11.2623 18.5554 12.0708 18.0319 12.4224C17.8456 12.5455 17.6846 12.5852 17.5552 12.5852ZM18.322 10.1397C18.245 10.1397 18.1462 10.1812 18.0407 10.2585C17.6494 10.5479 17.3309 11.2078 17.3309 11.7267C17.3309 11.9376 17.3875 12.0969 17.4782 12.1454C17.5513 12.1844 17.6677 12.157 17.7981 12.0701C18.2024 11.8001 18.5438 11.116 18.5438 10.5764C18.5438 10.363 18.4869 10.2016 18.3947 10.1545C18.372 10.1439 18.3471 10.1388 18.322 10.1397Z" fill="black"/>
<path d="M17.5552 16.6222C17.4591 16.6229 17.3642 16.5997 17.2792 16.5547C17.0402 16.4271 16.9087 16.1462 16.9087 15.764C16.9087 15.1158 17.2954 14.3226 17.7876 13.9567C18.1666 13.6754 18.4485 13.7482 18.5828 13.816C18.7235 13.8863 18.9636 14.0867 18.9636 14.6137C18.9636 15.2982 18.5537 16.1086 18.0302 16.458C17.8456 16.5825 17.6846 16.6222 17.5552 16.6222ZM18.322 14.1771C18.245 14.1771 18.1462 14.2182 18.0407 14.2959C17.6494 14.5853 17.3309 15.2451 17.3309 15.764C17.3309 15.975 17.3875 16.1342 17.4782 16.1827C17.5513 16.2218 17.6677 16.1944 17.7981 16.1072C18.2024 15.8372 18.5438 15.1534 18.5438 14.6137C18.5438 14.4003 18.4869 14.239 18.3947 14.1919C18.372 14.1812 18.3471 14.1762 18.322 14.1771Z" fill="black"/>
<path d="M6.52738 16.6117C6.38676 16.6117 6.20605 16.5643 5.99687 16.4096C5.50469 16.0443 5.11621 15.2494 5.11621 14.6022C5.11621 14.2201 5.2477 13.9392 5.48676 13.8115C5.61262 13.744 5.8784 13.6671 6.23945 13.9082C6.76293 14.2577 7.17285 15.0684 7.17285 15.7529C7.17285 16.2802 6.93414 16.4789 6.79211 16.5502C6.70993 16.5913 6.61923 16.6123 6.52738 16.6117ZM5.76168 14.1663C5.73522 14.1656 5.70901 14.1716 5.68539 14.1835C5.59469 14.2324 5.53809 14.3944 5.53809 14.6022C5.53809 15.1225 5.8566 15.781 6.24789 16.0703C6.38852 16.1758 6.52211 16.2141 6.60191 16.1737C6.69402 16.1273 6.75098 15.9659 6.75098 15.7518C6.75098 15.2122 6.40926 14.528 6.00496 14.258C5.93423 14.205 5.84984 14.1731 5.76168 14.1663Z" fill="black"/>
<path d="M9.93461 14.9966C9.79398 14.9966 9.61328 14.9492 9.4041 14.7945C8.91016 14.4292 8.52344 13.6343 8.52344 12.9871C8.52344 12.6046 8.65492 12.324 8.89363 12.1964C9.01984 12.1289 9.28562 12.0516 9.64668 12.2927C10.1702 12.6426 10.5801 13.4529 10.5801 14.1374C10.5801 14.6647 10.3414 14.8634 10.199 14.9351C10.1169 14.976 10.0263 14.9971 9.93461 14.9966ZM9.16891 12.5508C9.14242 12.5503 9.11621 12.5563 9.09262 12.5684C9.00191 12.6169 8.94531 12.7772 8.94531 12.9871C8.94531 13.507 9.26383 14.1659 9.65512 14.4552C9.79574 14.5607 9.92934 14.5986 10.0091 14.5582C10.1009 14.5122 10.1582 14.3508 10.1582 14.1363C10.1582 13.5967 9.81648 12.9126 9.41219 12.6426C9.32113 12.5828 9.23641 12.5508 9.16891 12.5508Z" fill="black"/>
<path d="M11.9988 8.71202C11.7374 8.71202 11.4819 8.63451 11.2646 8.4893C11.0472 8.34409 10.8779 8.1377 10.7778 7.89622C10.6778 7.65474 10.6516 7.38903 10.7026 7.13268C10.7536 6.87633 10.8795 6.64085 11.0643 6.45604C11.2491 6.27122 11.4846 6.14535 11.741 6.09436C11.9973 6.04337 12.263 6.06954 12.5045 6.16957C12.746 6.26959 12.9524 6.43897 13.0976 6.65629C13.2428 6.87362 13.3203 7.12912 13.3203 7.39049C13.3199 7.74087 13.1806 8.07679 12.9328 8.32454C12.6851 8.57229 12.3491 8.71165 11.9988 8.71202ZM11.9988 6.49085C11.8208 6.49085 11.6469 6.54361 11.499 6.64246C11.351 6.74132 11.2357 6.88182 11.1676 7.04621C11.0995 7.2106 11.0817 7.39149 11.1164 7.56601C11.1511 7.74052 11.2368 7.90082 11.3626 8.02664C11.4884 8.15246 11.6487 8.23814 11.8233 8.27286C11.9978 8.30757 12.1787 8.28975 12.3431 8.22166C12.5074 8.15357 12.6479 8.03826 12.7468 7.89031C12.8457 7.74237 12.8984 7.56843 12.8984 7.39049C12.8981 7.15198 12.8033 6.92331 12.6346 6.75465C12.466 6.586 12.2373 6.49112 11.9988 6.49085Z" fill="black"/>
<path d="M12.1465 20.5435C12.0905 20.5435 12.0369 20.5213 11.9973 20.4817C11.9578 20.4422 11.9355 20.3885 11.9355 20.3326V12.2565C11.9355 12.2005 11.9578 12.1469 11.9973 12.1073C12.0369 12.0678 12.0905 12.0455 12.1465 12.0455C12.2024 12.0455 12.2561 12.0678 12.2956 12.1073C12.3352 12.1469 12.3574 12.2005 12.3574 12.2565V20.3326C12.3574 20.3885 12.3352 20.4422 12.2956 20.4817C12.2561 20.5213 12.2024 20.5435 12.1465 20.5435Z" fill="black"/>
<path d="M12.1563 12.3665C11.8899 12.367 11.6288 12.2919 11.4033 12.15L4.89725 8.04654C4.8506 8.0164 4.81772 7.96908 4.80574 7.91484C4.79377 7.86061 4.80367 7.80384 4.83329 7.75686C4.86291 7.70987 4.90987 7.67647 4.96397 7.6639C5.01807 7.65133 5.07495 7.6606 5.12225 7.6897L11.6262 11.7931C11.7842 11.8921 11.967 11.9446 12.1535 11.9446C12.34 11.9446 12.5228 11.8921 12.6808 11.7931L19.1848 7.6897C19.2082 7.67457 19.2344 7.66423 19.2618 7.65928C19.2893 7.65434 19.3175 7.65489 19.3447 7.66091C19.3719 7.66692 19.3977 7.67828 19.4205 7.69432C19.4434 7.71037 19.4628 7.73078 19.4776 7.75438C19.4925 7.77797 19.5026 7.80429 19.5072 7.83179C19.5119 7.8593 19.511 7.88746 19.5047 7.91463C19.4984 7.9418 19.4867 7.96745 19.4704 7.99009C19.4541 8.01274 19.4335 8.03192 19.4098 8.04654L12.9058 12.15C12.6814 12.2913 12.4216 12.3664 12.1563 12.3665Z" fill="black"/>
</g>
<defs>
<clipPath id="clip0_67_9913">
<rect width="18" height="18" fill="white" transform="translate(2.99951 3.00012)"/>
</clipPath>
</defs>
</svg>
