<svg width="24" height="24" viewBox="0 0 24 24" fill="none" xmlns="http://www.w3.org/2000/svg">
<g clip-path="url(#clip0_9_42)">
<path d="M24 12C24 5.37258 18.6274 0 12 0C5.37258 0 0 5.37258 0 12C0 18.6274 5.37258 24 12 24C18.6274 24 24 18.6274 24 12Z" fill="#86FC79"/>
<path d="M13.3038 8.72191C13.3038 9.44612 13.8908 10.0331 14.615 10.0331H17.2374C17.9616 10.0331 18.5486 9.44612 18.5486 8.72191C18.5486 7.9977 17.9616 7.41067 17.2374 7.41067H14.615C13.8908 7.41067 13.3038 7.9977 13.3038 8.72191Z" fill="#F5D9AB"/>
<path d="M13.3038 11.3444C13.3038 12.0686 13.8908 12.6556 14.615 12.6556H17.2374C17.9616 12.6556 18.5486 12.0686 18.5486 11.3444C18.5486 10.6202 17.9616 10.0331 17.2374 10.0331H14.615C13.8908 10.0331 13.3038 10.6202 13.3038 11.3444Z" fill="#F5D9AB"/>
<path d="M15.926 11.3444C15.926 12.0686 15.339 12.6556 14.6148 12.6556V17.9005H11.3368C8.07812 17.9005 5.43636 15.2588 5.43636 12C5.43636 8.74125 8.07803 6.09944 11.3368 6.09944H15.926V11.3444Z" fill="#F5D9AB"/>
<path d="M13.3037 16.5893C13.3037 17.3135 13.8907 17.9005 14.6149 17.9005H15.9261C16.6503 17.9005 17.2373 17.3135 17.2373 16.5893C17.2373 15.8651 16.6503 15.2781 15.9261 15.2781H14.6149C13.8908 15.2781 13.3037 15.8651 13.3037 16.5893Z" fill="#F5D9AB"/>
<path d="M13.3038 13.9668C13.3038 14.6911 13.8908 15.2781 14.615 15.2781H17.2374C17.9616 15.2781 18.5486 14.6911 18.5486 13.9668C18.5486 13.2426 17.9616 12.6556 17.2374 12.6556H14.615C13.8908 12.6556 13.3038 13.2426 13.3038 13.9668Z" fill="#F5D9AB"/>
<path d="M14.6149 15.2781C13.8907 15.2781 13.3037 15.8651 13.3037 16.5893C13.3037 17.3135 13.8907 17.9005 14.6149 17.9005H15.9261C16.6503 17.9005 17.2373 17.3135 17.2373 16.5893C17.2373 15.8651 16.6503 15.2781 15.9261 15.2781" stroke="black" stroke-miterlimit="10"/>
<path d="M17.2374 12.6556C17.9616 12.6556 18.5486 12.0686 18.5486 11.3444C18.5486 10.6202 17.9616 10.0331 17.2374 10.0331H15.9262" stroke="black" stroke-miterlimit="10"/>
<path d="M17.2374 10.0331C17.9616 10.0331 18.5486 9.44612 18.5486 8.72191C18.5486 7.9977 17.9616 7.41067 17.2374 7.41067H15.9262" stroke="black" stroke-miterlimit="10"/>
<path d="M13.3037 8.72191C13.3037 10.8945 11.5426 12.6556 9.37009 12.6556" stroke="black" stroke-miterlimit="10"/>
<path d="M11.9924 17.9005H11.3368C8.07812 17.9005 5.43636 15.2588 5.43636 12C5.43636 8.74125 8.07803 6.09944 11.3368 6.09944H15.926V11.3444C15.926 12.0686 15.339 12.6556 14.6148 12.6556C13.8906 12.6556 13.3036 12.0686 13.3036 11.3444V8.72191" stroke="black" stroke-miterlimit="10"/>
<path d="M13.3038 13.9668C13.3038 14.6911 13.8908 15.2781 14.615 15.2781H17.2374C17.9616 15.2781 18.5486 14.6911 18.5486 13.9668C18.5486 13.2426 17.9616 12.6556 17.2374 12.6556H14.615C13.8908 12.6556 13.3038 13.2426 13.3038 13.9668Z" stroke="black" stroke-miterlimit="10"/>
</g>
<defs>
<clipPath id="clip0_9_42">
<rect width="24" height="24" fill="white"/>
</clipPath>
</defs>
</svg>
