<svg width="24" height="24" viewBox="0 0 24 24" fill="none" xmlns="http://www.w3.org/2000/svg">
<circle cx="12" cy="12" r="12" fill="white"/>
<path d="M17.4031 6.70015H16.2812V5.57827C16.2812 4.92827 15.7531 4.40015 15.1031 4.40015H8.53123C8.42498 4.40015 8.32498 4.44077 8.24686 4.51577L5.53436 7.22515C5.45936 7.30015 5.41561 7.40327 5.41561 7.50952V16.1251C5.41561 16.7751 5.94373 17.3033 6.59373 17.3033H7.71873V18.4251C7.71873 19.0751 8.24686 19.6033 8.89373 19.6033H17.4031C18.0531 19.6033 18.5812 19.0751 18.5812 18.4251V7.87515C18.5812 7.22827 18.0531 6.70015 17.4031 6.70015ZM8.13123 5.76577V6.73452C8.13123 6.9439 7.96248 7.11265 7.75311 7.11265H6.78436L8.13123 5.76577ZM6.59686 16.5001C6.38748 16.5001 6.21873 16.3314 6.21873 16.1251V7.90952H7.75311C8.40311 7.90952 8.93123 7.3814 8.93123 6.7314V5.20015H15.1062C15.3125 5.20015 15.4844 5.3689 15.4844 5.57827V16.1251C15.4844 16.3345 15.3156 16.5033 15.1062 16.5033H6.59686V16.5001ZM17.7812 18.422C17.7812 18.6314 17.6125 18.8001 17.4031 18.8001H8.89373C8.68748 18.8001 8.51873 18.6314 8.51873 18.422V17.3001H15.1062C15.7562 17.3001 16.2844 16.772 16.2844 16.122V7.50015H17.4062C17.6156 7.50015 17.7844 7.6689 17.7844 7.87515V18.422H17.7812Z" fill="#5BC3EB"/>
<path d="M13.1499 7.46265H10.3156C10.0937 7.46265 9.91557 7.64077 9.91557 7.86265C9.91557 8.08452 10.0937 8.26265 10.3156 8.26265H13.1499C13.3718 8.26265 13.5499 8.08452 13.5499 7.86265C13.5499 7.64077 13.3687 7.46265 13.1499 7.46265Z" fill="#5BC3EB"/>
<path d="M13.1499 10.45H8.55304C8.33116 10.45 8.15304 10.6281 8.15304 10.85C8.15304 11.0718 8.33116 11.25 8.55304 11.25H13.1499C13.3718 11.25 13.5499 11.0718 13.5499 10.85C13.5499 10.6312 13.3687 10.45 13.1499 10.45Z" fill="#5BC3EB"/>
<path d="M11.2343 13.4375H8.55304C8.33116 13.4375 8.15304 13.6156 8.15304 13.8375C8.15304 14.0594 8.33116 14.2375 8.55304 14.2375H11.2343C11.4562 14.2375 11.6343 14.0594 11.6343 13.8375C11.6343 13.6187 11.453 13.4375 11.2343 13.4375Z" fill="#5BC3EB"/>
</svg>
