<svg width="24" height="24" viewBox="0 0 24 24" fill="none" xmlns="http://www.w3.org/2000/svg">
<circle cx="12" cy="12" r="12" fill="#FFA538"/>
<path d="M4.63477 7.86914H19.3652C20.0543 7.86914 20.6133 8.42812 20.6133 9.11719V14.8828C20.6133 15.5719 20.0543 16.1309 19.3652 16.1309H4.63477C3.9457 16.1309 3.38672 15.5719 3.38672 14.8828V9.11719C3.38672 8.42812 3.9457 7.86914 4.63477 7.86914Z" fill="#E3E3E3"/>
<path d="M8.56172 16.1311H4.63477C3.9457 16.1311 3.38672 15.5721 3.38672 14.883V9.11738C3.38672 9.09277 3.38672 9.06465 3.39023 9.04004C4.48711 11.8033 6.26602 14.2432 8.56172 16.1311Z" fill="#B3B3B3"/>
<path d="M5.37656 8.74805H9.42305V15.252H5.37656C4.76484 15.252 4.26562 14.7562 4.26562 14.141V9.85898C4.26562 9.24375 4.76133 8.74805 5.37656 8.74805Z" fill="#CFDCE5"/>
<path d="M7.57383 15.2519H5.37656C4.76484 15.2519 4.26562 14.7562 4.26562 14.1409V10.9136C5.1375 12.5237 6.25195 13.9862 7.57383 15.2519Z" fill="#BCC6CC"/>
<path d="M5.74574 9.70068H7.97816C8.18558 9.70068 8.35082 9.86943 8.35082 10.0769C8.35082 10.1331 8.33676 10.1894 8.31215 10.2421L6.4559 14.0671C6.35746 14.271 6.11136 14.3554 5.90746 14.2569C5.70355 14.1585 5.61918 13.9089 5.71761 13.705L7.18715 10.6851C7.21527 10.6323 7.19066 10.5655 7.13793 10.5409C7.12386 10.5339 7.10629 10.5304 7.09222 10.5304H5.74574C5.51722 10.5304 5.33441 10.344 5.33441 10.119C5.33441 9.88701 5.51722 9.7042 5.74574 9.70068Z" fill="#89023E"/>
<path d="M9.42307 8.74805H14.5805V15.252H9.42307V8.74805Z" fill="#F7F5FB"/>
<path d="M10.9031 9.70068H13.1355C13.343 9.70068 13.5082 9.86943 13.5082 10.0733C13.5082 10.1296 13.4941 10.1858 13.4695 10.2386L11.6133 14.0671C11.5148 14.271 11.2687 14.3554 11.0648 14.2569C10.8609 14.1585 10.7766 13.9089 10.875 13.705L12.3445 10.6851C12.3727 10.6323 12.348 10.5655 12.2953 10.5409C12.2812 10.5339 12.2637 10.5304 12.2461 10.5304H10.8996C10.6711 10.5304 10.4883 10.344 10.4883 10.119C10.4918 9.88701 10.6746 9.7042 10.9031 9.70068Z" fill="#89023E"/>
<path d="M14.5769 8.74805H18.6234C19.2351 8.74805 19.7344 9.24375 19.7344 9.85898V14.1445C19.7344 14.7563 19.2387 15.2555 18.6234 15.2555H14.5769V8.74805Z" fill="#CFDCE5"/>
<path d="M16.057 9.70068H18.2929C18.5004 9.70068 18.6656 9.86943 18.6656 10.0733C18.6656 10.1296 18.6515 10.1858 18.6269 10.2386L16.7672 14.0636C16.6687 14.2675 16.4226 14.3519 16.2187 14.2534C16.2187 14.2534 16.2187 14.2534 16.2152 14.2534C16.0113 14.155 15.9269 13.9054 16.0254 13.7015L17.4949 10.6815C17.523 10.6288 17.4984 10.562 17.4457 10.5374C17.4316 10.5304 17.414 10.5269 17.3964 10.5269H16.0535C15.825 10.5269 15.6422 10.3405 15.6422 10.1155C15.6457 9.88701 15.832 9.7042 16.057 9.70068Z" fill="#89023E"/>
<path d="M19.9032 12.1687L20.6133 12.8789V11.1211L19.9032 11.8312C19.8082 11.9262 19.8082 12.0738 19.9032 12.1687Z" fill="#89023E"/>
<path d="M4.09688 12.1687L3.38672 12.8789V11.1211L4.09688 11.8312C4.1918 11.9262 4.1918 12.0738 4.09688 12.1687Z" fill="#89023E"/>
<path d="M6.4523 14.074C6.34331 14.2744 6.09371 14.3482 5.89332 14.2393C5.70347 14.1373 5.62613 13.9018 5.71753 13.7049L5.87925 13.3779C6.06206 13.6135 6.25542 13.8455 6.4523 14.074Z" fill="#89023E"/>
</svg>
