<svg width="24" height="24" viewBox="0 0 24 24" fill="none" xmlns="http://www.w3.org/2000/svg">
<g clip-path="url(#clip0_726_30883)">
<path d="M12 24C18.6274 24 24 18.6274 24 12C24 5.37258 18.6274 0 12 0C5.37258 0 0 5.37258 0 12C0 18.6274 5.37258 24 12 24Z" fill="#F9BC93"/>
<path d="M12 21.2526C17.1101 21.2526 21.2526 17.11 21.2526 11.9999C21.2526 6.88986 17.1101 2.74731 12 2.74731C6.88991 2.74731 2.74737 6.88986 2.74737 11.9999C2.74737 17.11 6.88991 21.2526 12 21.2526Z" fill="#FF9436"/>
<path d="M12 4.8894L14.1053 9.15256L18.8105 9.83677L15.4053 13.1526L16.2105 17.8368L12.0053 15.6262L7.8 17.8368L8.60526 13.1526L5.2 9.83677L9.90526 9.15256L12 4.8894Z" fill="#F9BC93"/>
</g>
<defs>
<clipPath id="clip0_726_30883">
<rect width="24" height="24" fill="white"/>
</clipPath>
</defs>
</svg>
