<svg width="24" height="24" viewBox="0 0 24 24" fill="none" xmlns="http://www.w3.org/2000/svg">
<g clip-path="url(#clip0_726_30943)">
<path d="M12 23.6484C18.4333 23.6484 23.6484 18.4333 23.6484 12C23.6484 5.56675 18.4333 0.351562 12 0.351562C5.56675 0.351562 0.351562 5.56675 0.351562 12C0.351562 18.4333 5.56675 23.6484 12 23.6484Z" fill="#F7A16E"/>
<path d="M12 23.6485C18.4312 23.6485 23.6484 18.4313 23.6484 12C23.6484 8.27817 21.9047 4.96411 19.1859 2.8313C18.6937 3.38442 18.7125 4.22817 19.2422 4.75786C21.1781 6.6938 22.2422 9.26255 22.2422 12C22.2422 14.7375 21.1781 17.3063 19.2422 19.2422C17.3062 21.1782 14.7375 22.2422 12 22.2422C9.2625 22.2422 6.69375 21.1782 4.75781 19.2422C4.22812 18.7125 3.38437 18.6938 2.83125 19.186C4.96406 21.9 8.27812 23.6485 12 23.6485Z" fill="#B66652"/>
<path d="M19.9547 7.40625C19.1484 6.01406 17.9859 4.85156 16.5938 4.04531L12 2.8125C10.3266 2.8125 8.76094 3.2625 7.40625 4.04531L4.04531 7.40625C3.2625 8.76094 2.8125 10.3266 2.8125 12L4.04531 16.5938C4.85156 17.9859 6.01406 19.1484 7.40625 19.9547L12 21.1875C13.6734 21.1875 15.2391 20.7375 16.5938 19.9547L19.9547 16.5938C20.7375 15.2437 21.1875 13.6734 21.1875 12L19.9547 7.40625Z" fill="#596775"/>
<path d="M2.8125 12C2.8125 13.6734 3.2625 15.2391 4.04531 16.5938L12 12H2.8125Z" fill="#FF5368"/>
<path d="M7.40625 4.04541C6.01406 4.85166 4.85156 6.01416 4.04531 7.40635L12 12.0001L7.40625 4.04541Z" fill="#FF5368"/>
<path d="M16.5938 4.04531C15.2391 3.2625 13.6734 2.8125 12 2.8125V12L16.5938 4.04531Z" fill="#FF5368"/>
<path d="M7.40625 19.9547C8.75625 20.7375 10.3266 21.1875 12 21.1875V12L7.40625 19.9547Z" fill="#FF5368"/>
<path d="M7.40625 19.9547C8.75625 20.7375 10.3266 21.1875 12 21.1875V12L7.40625 19.9547Z" fill="#FF5368"/>
<path d="M12 12H21.1875C21.1875 10.3266 20.7375 8.76094 19.9547 7.40625L12 12Z" fill="#FF5368"/>
<path d="M16.5938 19.9547C17.9859 19.1484 19.1484 17.9859 19.9547 16.5938L12 12L16.5938 19.9547Z" fill="#4FE267"/>
<path d="M21.1875 12L19.9547 7.40625C19.1484 6.01406 17.9859 4.85156 16.5938 4.04531L15.2344 3.67969C15.075 4.27969 15.3234 4.93594 15.8859 5.25937C18.2906 6.65156 19.7813 9.23438 19.7813 12C19.7813 13.3641 19.4203 14.7094 18.7359 15.8859C17.3484 18.2906 14.7656 19.7812 12 19.7812C10.6359 19.7812 9.29063 19.4203 8.11406 18.7359C7.47188 18.3656 6.66094 18.5578 6.24844 19.1578C6.61406 19.4531 6.99844 19.7203 7.40625 19.9547L12 21.1875C13.6734 21.1875 15.2391 20.7375 16.5938 19.9547L19.9547 16.5938C20.7375 15.2391 21.1875 13.6734 21.1875 12Z" fill="#35404A"/>
<path d="M15.3234 3.43604C15.0094 4.09229 15.2438 4.88916 15.8859 5.25947L16.5891 4.04072C16.1906 3.81103 15.7641 3.60947 15.3234 3.43604Z" fill="#C5324F"/>
<path d="M8.10938 18.7361L7.40625 19.9548C8.75625 20.7376 10.3266 21.1876 12 21.1876V19.7814C10.6359 19.7814 9.29063 19.4205 8.10938 18.7361Z" fill="#C5324F"/>
<path d="M16.5937 19.9547C17.9859 19.1484 19.1484 17.9859 19.9547 16.5938L18.7359 15.8906C18.0422 17.0906 17.0484 18.0609 15.8859 18.7359L16.5937 19.9547Z" fill="#00BD4F"/>
<path d="M18.7313 8.11406C19.4063 9.27656 19.7813 10.6172 19.7813 12H21.1875C21.1875 10.3266 20.7375 8.76094 19.9547 7.40625L18.7313 8.11406Z" fill="#C5324F"/>
<path d="M12 15.5625C10.0641 15.5625 8.4375 13.9781 8.4375 12C8.4375 10.0359 10.0359 8.4375 12 8.4375C13.9641 8.4375 15.5625 10.0359 15.5625 12C15.5625 13.9875 13.9313 15.5625 12 15.5625Z" fill="#F7A16E"/>
<path d="M15.5625 11.9999C15.5625 10.514 14.6438 9.23428 13.3453 8.70459C12.9797 9.25303 13.0406 9.99365 13.5234 10.4765C14.3625 11.3155 14.3625 12.6843 13.5234 13.528C12.6844 14.3718 11.3156 14.3671 10.4719 13.528C9.98906 13.0452 9.24844 12.989 8.7 13.3499C9.23906 14.653 10.5281 15.5671 11.9953 15.5671C13.9313 15.5624 15.5625 13.9874 15.5625 11.9999Z" fill="#B66652"/>
<path d="M6.9375 7.64062C7.32583 7.64062 7.64062 7.32583 7.64062 6.9375C7.64062 6.54917 7.32583 6.23438 6.9375 6.23438C6.54917 6.23438 6.23438 6.54917 6.23438 6.9375C6.23438 7.32583 6.54917 7.64062 6.9375 7.64062Z" fill="#FFF9EB"/>
<path d="M12.0047 0C9.08438 0 6.27656 1.05469 4.09219 2.97188C3.94688 3.09844 3.93281 3.32344 4.05937 3.46875C4.18594 3.60938 4.40625 3.63281 4.55625 3.50156C6.60938 1.69687 9.25313 0.703125 12.0047 0.703125C18.225 0.703125 23.2969 5.75156 23.2969 12.0047C23.2969 18.225 18.2484 23.2969 11.9953 23.2969C5.775 23.2969 0.703125 18.2484 0.703125 11.9953C0.703125 9.21094 1.725 6.53437 3.58594 4.4625C3.71719 4.3125 3.70312 4.09219 3.55781 3.96562C3.4125 3.83437 3.19219 3.84844 3.06094 3.99375C1.02188 6.26719 0 9.12656 0 11.9953C0 18.6656 5.40937 24 11.9953 24C14.5125 24 16.9641 23.2125 18.9984 21.7453C22.0406 19.5609 24 15.9938 24 12.0047C24 5.37656 18.6328 0 12.0047 0Z" fill="#E3E3E3"/>
<path d="M18.6 18.0375C18.6047 18.1312 18.6516 18.2156 18.7219 18.2766C18.7875 18.3328 18.8672 18.3609 18.9516 18.3609C19.0547 18.3609 19.1484 18.3187 19.2188 18.2391C20.7141 16.5094 21.5391 14.2922 21.5391 11.9859C21.5391 6.75937 17.3109 2.46094 12 2.46094H11.9953C6.73125 2.46094 2.46563 6.72188 2.46563 12.0047C2.46563 17.2641 6.72656 21.5297 12.0094 21.5297C14.2266 21.5297 16.4156 20.7609 18.1781 19.2609C18.3234 19.1344 18.3422 18.9141 18.2203 18.7641C18.1547 18.6844 18.0563 18.6422 17.9531 18.6422C17.8688 18.6422 17.7891 18.6703 17.7281 18.7266C17.4094 18.9984 17.0766 19.2422 16.725 19.4625L14.2594 15.1922C14.625 14.9344 14.9484 14.6109 15.2063 14.2453L19.4766 16.7109C19.2422 17.0812 18.9797 17.4375 18.6891 17.775C18.6188 17.8547 18.5906 17.9437 18.6 18.0375ZM15.9 11.6484C15.8578 11.1844 15.7359 10.7437 15.5484 10.3406L19.8234 7.88906C20.4328 9.04687 20.775 10.3312 20.8266 11.6484H15.9ZM19.4672 7.27969L15.1875 9.73594C14.9344 9.37969 14.6203 9.06562 14.2641 8.8125L16.7156 4.53281C17.7984 5.2125 18.75 6.14062 19.4672 7.27969ZM16.1109 4.18125L13.6594 8.45625C13.2563 8.26875 12.8156 8.14219 12.3516 8.10469V3.17344C13.6781 3.22969 14.9625 3.57656 16.1109 4.18125ZM11.6484 3.17344V8.1C11.1891 8.14219 10.7531 8.25937 10.3547 8.44687L7.88906 4.17656C9.04688 3.57187 10.3313 3.225 11.6484 3.17344ZM7.27969 4.52812L9.74531 8.79844C9.37969 9.05625 9.05625 9.37969 8.79844 9.74531L4.52813 7.27969C5.2125 6.20156 6.14531 5.25 7.27969 4.52812ZM8.1 12.3516C8.14219 12.8156 8.26406 13.2562 8.45156 13.6594L4.17656 16.1109C3.56719 14.9531 3.225 13.6687 3.17344 12.3516H8.1ZM4.18125 7.88906L8.45156 10.3547C8.26406 10.7531 8.14688 11.1891 8.10469 11.6484H3.17344C3.22969 10.3219 3.57656 9.04219 4.18125 7.88906ZM4.53281 16.7203L8.8125 14.2687C9.07031 14.6297 9.38906 14.9437 9.75 15.2016L7.28438 19.4719C6.21094 18.7922 5.25469 17.8641 4.53281 16.7203ZM7.88906 19.8234L10.3547 15.5531C10.7531 15.7406 11.1891 15.8578 11.6484 15.9V20.8266C10.3406 20.7703 9.05625 20.4328 7.88906 19.8234ZM16.1109 19.8187C14.9531 20.4234 13.6688 20.7703 12.3516 20.8219V15.9C12.8109 15.8578 13.2469 15.7406 13.6453 15.5531L16.1109 19.8187ZM12 15.2109C10.2281 15.2109 8.78906 13.7719 8.78906 12C8.78906 10.2281 10.2281 8.78906 12 8.78906C13.7719 8.78906 15.2109 10.2281 15.2109 12C15.2109 13.7719 13.7719 15.2109 12 15.2109ZM15.5531 13.6453C15.7406 13.2469 15.8578 12.8109 15.9 12.3516H20.8266C20.775 13.6734 20.4281 14.9578 19.8234 16.1109L15.5531 13.6453Z" fill="#E3E3E3"/>
<path d="M13.8281 11.3391C13.5937 11.3391 13.3875 11.461 13.2703 11.6485H12.3516V10.7297C12.5391 10.6125 12.6609 10.4063 12.6609 10.1719C12.6609 9.8063 12.3656 9.51099 12 9.51099C11.6344 9.51099 11.3391 9.8063 11.3391 10.1719C11.3391 10.4063 11.4609 10.6125 11.6484 10.7297V11.6485H10.7297C10.6125 11.461 10.4062 11.3391 10.1719 11.3391C9.80625 11.3391 9.51094 11.6344 9.51094 12C9.51094 12.3657 9.80625 12.661 10.1719 12.661C10.4062 12.661 10.6125 12.5391 10.7297 12.3516H11.6484V13.2704C11.4609 13.3875 11.3391 13.5938 11.3391 13.8282C11.3391 14.1938 11.6344 14.4891 12 14.4891C12.3656 14.4891 12.6609 14.1938 12.6609 13.8282C12.6609 13.5938 12.5391 13.3875 12.3516 13.2704V12.3516H13.2703C13.3875 12.5391 13.5937 12.661 13.8281 12.661C14.1937 12.661 14.4891 12.3657 14.4891 12C14.4891 11.6344 14.1937 11.3391 13.8281 11.3391Z" fill="#E3E3E3"/>
<path d="M6.9375 7.99219C7.51875 7.99219 7.99219 7.51875 7.99219 6.9375C7.99219 6.35625 7.51875 5.88281 6.9375 5.88281C6.35625 5.88281 5.88281 6.35625 5.88281 6.9375C5.88281 7.51875 6.35625 7.99219 6.9375 7.99219ZM6.9375 6.58594C7.12969 6.58594 7.28906 6.74531 7.28906 6.9375C7.28906 7.12969 7.12969 7.28906 6.9375 7.28906C6.74531 7.28906 6.58594 7.12969 6.58594 6.9375C6.58594 6.74531 6.74531 6.58594 6.9375 6.58594Z" fill="#E3E3E3"/>
</g>
<defs>
<clipPath id="clip0_726_30943">
<rect width="24" height="24" fill="white"/>
</clipPath>
</defs>
</svg>
