<svg width="24" height="24" viewBox="0 0 24 24" fill="none" xmlns="http://www.w3.org/2000/svg">
<g clip-path="url(#clip0_726_31170)">
<path d="M12 0C5.37311 0 0 5.37311 0 12C0 18.6269 5.37311 24 12 24C18.6269 24 24 18.6269 24 12C24 5.37311 18.6269 0 12 0Z" fill="#222222"/>
<path d="M13.3125 10.9145L18.4489 4.94287H17.2323L12.7726 10.1282L9.2088 4.94287H5.10122L10.488 12.7825L5.10122 19.0456H6.31785L11.0279 13.5707L14.7912 19.0456H18.9007L13.3125 10.9145ZM6.75599 5.85827H8.62592L17.2323 18.1712H15.3623L6.75599 5.85827Z" fill="#E3E3E3"/>
</g>
<defs>
<clipPath id="clip0_726_31170">
<rect width="24" height="24" fill="white"/>
</clipPath>
</defs>
</svg>
