<svg width="24" height="24" viewBox="0 0 24 24" fill="none" xmlns="http://www.w3.org/2000/svg">
<circle cx="12" cy="12" r="12" fill="#390081"/>
<mask id="mask0_726_30974" style="mask-type:luminance" maskUnits="userSpaceOnUse" x="0" y="-1" width="25" height="25">
<path d="M24.0013 23.9978H0.00128174V-0.00219727H24.0013V23.9978Z" fill="white"/>
</mask>
<g mask="url(#mask0_726_30974)">
<path d="M14.4103 6.5504C14.4103 7.79136 13.4014 8.80029 12.1604 8.80029C10.9195 8.80029 9.91052 7.79136 9.91052 6.5504C9.91052 5.30945 10.9195 4.30051 12.1604 4.30051C13.4014 4.30051 14.4103 5.30945 14.4103 6.5504Z" fill="white"/>
<path d="M14.4103 6.5504C14.4103 7.79136 13.4014 8.80029 12.1604 8.80029C10.9195 8.80029 9.91052 7.79136 9.91052 6.5504C9.91052 5.30945 10.9195 4.30051 12.1604 4.30051C13.4014 4.30051 14.4103 5.30945 14.4103 6.5504Z" stroke="#E3E3E3" stroke-width="0.937455" stroke-miterlimit="13.3333" stroke-linecap="round" stroke-linejoin="round"/>
<path d="M17.5193 15.036L11.1915 17.0926C10.6396 17.2718 10.2669 17.7851 10.2669 18.3616C10.2669 19.0999 10.8646 19.6975 11.6028 19.6975H18.2576C19.5759 19.6975 20.6481 18.6288 20.6481 17.307C20.6481 15.6864 19.0626 14.5333 17.5193 15.036Z" fill="#FF9436"/>
<path d="M19.1227 17.3088C19.1227 16.8307 18.736 16.444 18.2579 16.444C17.7798 16.444 17.3931 16.8307 17.3931 17.3088C17.3931 17.7869 17.7798 18.1736 18.2579 18.1736C18.736 18.1736 19.1227 17.7869 19.1227 17.3088Z" fill="#89023E"/>
<path d="M17.5193 15.036L11.1915 17.0926C10.6396 17.2718 10.2669 17.7851 10.2669 18.3616C10.2669 19.0999 10.8646 19.6975 11.6028 19.6975H18.2576C19.5759 19.6975 20.6481 18.6288 20.6481 17.307C20.6481 15.6864 19.0626 14.5333 17.5193 15.036Z" stroke="#E3E3E3" stroke-width="0.937455" stroke-miterlimit="13.3333" stroke-linecap="round" stroke-linejoin="round"/>
<path d="M19.1227 17.3088C19.1227 16.8307 18.736 16.444 18.2579 16.444C17.7798 16.444 17.3931 16.8307 17.3931 17.3088C17.3931 17.7869 17.7798 18.1736 18.2579 18.1736C18.736 18.1736 19.1227 17.7869 19.1227 17.3088Z" stroke="#E3E3E3" stroke-width="0.937455" stroke-miterlimit="13.3333" stroke-linecap="round" stroke-linejoin="round"/>
<path d="M6.47971 7.09119L12.8075 9.14773C13.3594 9.32702 13.7321 9.84028 13.7321 10.4168C13.7321 11.1551 13.1345 11.7527 12.3962 11.7527H5.74146C4.42317 11.7527 3.35095 10.684 3.35095 9.36218C3.35095 7.74155 4.93642 6.58849 6.47971 7.09119Z" fill="#FF9436"/>
<path d="M4.87631 9.36371C4.87631 8.88561 5.26301 8.49891 5.74111 8.49891C6.21922 8.49891 6.60592 8.88561 6.60592 9.36371C6.60592 9.84182 6.21922 10.2285 5.74111 10.2285C5.26301 10.2285 4.87631 9.84182 4.87631 9.36371Z" fill="#89023E"/>
<path d="M6.95854 11.7534H5.74219C4.4239 11.7534 3.35168 10.6847 3.35168 9.36291C3.35168 7.73877 4.93715 6.58922 6.48044 7.09193L12.8083 9.14847C13.3567 9.32776 13.7293 9.8375 13.7293 10.4175C13.7293 11.1558 13.1317 11.7534 12.3934 11.7534H10.1224" stroke="#E3E3E3" stroke-width="0.937455" stroke-miterlimit="13.3333" stroke-linecap="round" stroke-linejoin="round"/>
<path d="M4.87631 9.36371C4.87631 8.88561 5.26301 8.49891 5.74111 8.49891C6.21922 8.49891 6.60592 8.88561 6.60592 9.36371C6.60592 9.84182 6.21922 10.2285 5.74111 10.2285C5.26301 10.2285 4.87631 9.84182 4.87631 9.36371Z" stroke="#E3E3E3" stroke-width="0.937455" stroke-miterlimit="13.3333" stroke-linecap="round" stroke-linejoin="round"/>
</g>
</svg>
