<svg width="24" height="24" viewBox="0 0 24 24" fill="none" xmlns="http://www.w3.org/2000/svg">
<rect width="24" height="24" rx="12" fill="#FF496A"/>
<path d="M19.9179 8.39062V15.6055C19.9179 16.2031 19.6015 16.75 19.0859 17.0469L12.8359 20.6562C12.5781 20.8047 12.289 20.8828 12.0039 20.8828V11.9883L19.6914 7.55078C19.8359 7.80078 19.9179 8.08984 19.9179 8.39062Z" fill="#C5D4DD"/>
<path d="M12 11.9883V20.8828C11.711 20.8828 11.4258 20.8086 11.168 20.6562L4.91801 17.0469C4.40238 16.75 4.08598 16.1992 4.08598 15.6055V8.39062C4.08598 8.08984 4.1641 7.80078 4.31645 7.55078L12 11.9883Z" fill="#E9EEF2"/>
<path d="M19.6875 7.55078L12 11.9883L4.31252 7.55078C4.45315 7.30469 4.66408 7.09766 4.91799 6.94922L11.168 3.33984C11.6836 3.03906 12.3164 3.03906 12.836 3.33984L19.086 6.94922C19.336 7.09766 19.5469 7.30469 19.6875 7.55078Z" fill="#F9F9F9"/>
<path d="M12.8829 6.90234C13.3712 7.18359 13.3712 7.64453 12.8868 7.92578C12.3985 8.20703 11.6095 8.20703 11.1212 7.92578C10.6329 7.64453 10.6251 7.18359 11.1134 6.90234C11.5977 6.62109 12.3907 6.62109 12.8829 6.90234Z" fill="#222222"/>
<path d="M9.82422 16.5821C10.2305 16.8165 10.5586 17.3868 10.5586 17.8555C10.5586 18.3282 10.2266 18.5157 9.82031 18.2813C9.41016 18.043 9.08203 17.4766 9.08203 17.004C9.08203 16.5313 9.41406 16.3438 9.82422 16.5821Z" fill="#222222"/>
<path d="M8.04688 13.4454C8.45312 13.6797 8.78125 14.2501 8.78125 14.7188C8.78125 15.1915 8.44922 15.379 8.04297 15.1446C7.63281 14.9063 7.30469 14.3399 7.30469 13.8672C7.30469 13.3946 7.63672 13.2071 8.04688 13.4454Z" fill="#222222"/>
<path d="M6.26567 10.3087C6.67192 10.543 7.00004 11.1133 7.00004 11.5821C7.00004 12.0547 6.66801 12.2422 6.26176 12.0079C5.8516 11.7696 5.52348 11.2032 5.52348 10.7305C5.52739 10.2579 5.85942 10.0704 6.26567 10.3087Z" fill="#222222"/>
<path d="M14.4727 12.5977C14.8829 12.3595 15.2149 12.5509 15.2149 13.0196C15.2149 13.4884 14.8868 14.0548 14.4766 14.293C14.0704 14.5274 13.7344 14.3399 13.7344 13.8751C13.7344 13.4024 14.0665 12.8321 14.4727 12.5977Z" fill="#222222"/>
<path d="M17.4298 10.8907C17.8399 10.6524 18.172 10.8438 18.172 11.3126C18.172 11.7813 17.8438 12.3477 17.4337 12.586C17.0274 12.8204 16.6954 12.6329 16.6954 12.1641C16.6915 11.6954 17.0196 11.1251 17.4298 10.8907Z" fill="#222222"/>
<path d="M14.4806 15.9962C14.8907 15.7579 15.2227 15.9493 15.2227 16.418C15.2227 16.8868 14.8946 17.4532 14.4845 17.6915C14.0782 17.9259 13.7423 17.7384 13.7423 17.2735C13.7423 16.8009 14.0743 16.2305 14.4806 15.9962Z" fill="#222222"/>
<path d="M17.4376 14.2891C17.8477 14.0509 18.1797 14.2423 18.1797 14.711C18.1797 15.1798 17.8516 15.7462 17.4415 15.9845C17.0352 16.2188 16.7032 16.0313 16.7032 15.5626C16.7032 15.0938 17.0313 14.5235 17.4376 14.2891Z" fill="#222222"/>
<path d="M19.293 6.58594L13.043 2.97656C12.3985 2.60547 11.6016 2.60547 10.961 2.97656L4.71096 6.58594C4.07033 6.95703 3.66799 7.64844 3.66799 8.39062V15.6055C3.66799 16.3477 4.06643 17.0391 4.71096 17.4102L10.961 21.0195C11.2813 21.2031 11.6446 21.2969 12.0039 21.2969C12.3633 21.2969 12.7227 21.2031 13.0469 21.0195L19.2969 17.4102C19.9375 17.0391 20.3399 16.3477 20.3399 15.6055V8.39062C20.3321 7.64844 19.9336 6.95703 19.293 6.58594ZM11.375 3.69922C11.5664 3.58984 11.7852 3.53125 12 3.53125C12.2149 3.53125 12.4336 3.58594 12.625 3.69922L18.875 7.30859C18.9375 7.34375 18.9883 7.39453 19.0469 7.4375L12 11.5078L4.95705 7.44141C5.01174 7.39453 5.06252 7.34766 5.12502 7.3125L11.375 3.69922ZM5.12502 16.6914C4.7383 16.4688 4.50002 16.0547 4.50002 15.6094V8.39062C4.50002 8.3125 4.51565 8.23438 4.53127 8.15625L11.5821 12.2266V20.3828C11.5117 20.3594 11.4414 20.3359 11.375 20.2969L5.12502 16.6914ZM19.5 15.6094C19.5 16.0547 19.2617 16.4688 18.875 16.6914L12.625 20.3008C12.5586 20.3398 12.4883 20.3633 12.418 20.3867V12.2266L19.4688 8.15625C19.4844 8.23438 19.5 8.30859 19.5 8.39062V15.6094Z" fill="#E3E3E3"/>
</svg>
