<svg width="24" height="24" viewBox="0 0 24 24" fill="none" xmlns="http://www.w3.org/2000/svg">
<rect width="24" height="24" rx="12" fill="#C9F69C"/>
<path d="M9.41602 6.91997C8.95195 6.90942 8.56523 7.00786 8.32617 7.07817C8.31914 7.07817 8.31563 7.07817 8.30859 7.07817L6.90234 7.51763C5.25352 8.02388 4.125 9.55317 4.125 11.2793V14.25C4.125 16.4192 5.89336 18.1875 8.0625 18.1875H13.6348C14.3203 18.2016 14.9848 17.8008 15.252 17.1329C15.4207 16.7075 15.3961 16.261 15.2344 15.8672C15.5789 15.6844 15.8707 15.3891 16.0254 15.0059C16.2012 14.5629 16.173 14.0954 15.9902 13.6875H18.1875C19.1121 13.6875 19.875 12.9247 19.875 12C19.875 11.0754 19.1121 10.3125 18.1875 10.3125H17.3262L17.5547 10.2422C18.4406 9.97505 18.9469 9.0188 18.6797 8.13286C18.4125 7.24692 17.4563 6.74067 16.5703 7.00786L11.8242 8.46685C11.782 8.36138 11.7328 8.24536 11.666 8.13286C11.3848 7.66177 10.8152 7.13091 9.9082 6.97271C9.73945 6.94458 9.5707 6.92349 9.41602 6.91997ZM17.1328 8.06255C17.3508 8.08716 17.5406 8.23833 17.6074 8.46685C17.6988 8.76919 17.523 9.07857 17.2207 9.16997L13.3711 10.3301L13.5645 10.9629V11.4375H18.1875C18.5074 11.4375 18.75 11.6801 18.75 12C18.75 12.32 18.5074 12.5625 18.1875 12.5625H14.4785L13.002 11.9825C12.7875 11.8981 12.5695 11.8559 12.3516 11.8594L12.0527 9.55669L16.9043 8.08013C16.9816 8.05552 17.059 8.05552 17.1328 8.06255ZM9.39844 8.08013C9.50742 8.08013 9.61641 8.08013 9.71484 8.09771C10.3195 8.20317 10.5516 8.46685 10.6992 8.71294C10.8469 8.95903 10.8574 9.13481 10.8574 9.13481V9.16997L11.332 12.7911C11.3355 12.8086 11.3426 12.8262 11.3496 12.8438C11.4199 13.1391 11.2406 13.4239 10.9453 13.4942C10.7625 13.5364 10.6711 13.5153 10.5762 13.459C10.4812 13.4028 10.3652 13.2868 10.2773 13.0372L9.57422 10.3125C9.53203 10.1438 9.4125 10.0102 9.2543 9.93989C9.09609 9.8731 8.9168 9.87661 8.76562 9.96099L7.83398 10.4708C7.56328 10.6184 7.46133 10.9629 7.6125 11.2336C7.76367 11.5079 8.10469 11.6063 8.37891 11.4551L8.66016 11.2969L9.20508 13.3711C9.20859 13.3887 9.21562 13.4063 9.22266 13.4239C9.37383 13.8598 9.63398 14.2079 9.99609 14.4258C10.2914 14.6051 10.6359 14.6719 10.9805 14.6368C10.8012 14.802 10.657 15.0129 10.5586 15.252C10.302 15.8954 10.4637 16.602 10.9277 17.0625H8.0625C6.50156 17.0625 5.25 15.811 5.25 14.25V11.2793C5.25 10.0418 6.05508 8.95552 7.23633 8.58989L8.64258 8.16802C8.75859 8.13286 9.07852 8.08013 9.39844 8.08013ZM12.457 13.002C12.4992 13.009 12.5379 13.002 12.5801 13.0196L14.6719 13.8633C14.9672 13.9829 15.1078 14.2887 14.9883 14.584C14.8687 14.8793 14.5453 15.02 14.25 14.9004L12.1582 14.0743C12.1266 14.0637 12.116 14.0356 12.0879 14.0215C12.3094 13.7368 12.4535 13.3747 12.457 13.002ZM12.1055 15.3223C12.1793 15.3223 12.2602 15.3293 12.334 15.3575L13.0898 15.6563L13.8281 15.9551L13.8984 15.9727C14.1938 16.0922 14.3344 16.4157 14.2148 16.711C14.1305 16.9254 13.9371 17.052 13.7227 17.0625C13.7156 17.0625 13.7121 17.0625 13.7051 17.0625C13.6313 17.0661 13.5504 17.0555 13.4766 17.0274L11.9121 16.3946C11.6168 16.2751 11.4762 15.9516 11.5957 15.6563C11.6555 15.5086 11.7645 15.4137 11.8945 15.3575C11.9613 15.3293 12.0316 15.3223 12.1055 15.3223Z" fill="#89023E"/>
</svg>
