<svg width="24" height="24" viewBox="0 0 24 24" fill="none" xmlns="http://www.w3.org/2000/svg">
<g clip-path="url(#clip0_726_31179)">
<path d="M12 24C18.6274 24 24 18.6274 24 12C24 5.37258 18.6274 0 12 0C5.37258 0 0 5.37258 0 12C0 18.6274 5.37258 24 12 24Z" fill="#5BC3EB"/>
<path d="M5.48906 11.7422L17.0625 7.27974C17.6016 7.08755 18.0703 7.41099 17.8922 8.22193L15.9234 17.5032C15.7781 18.1594 15.3844 18.3235 14.8406 18.0094L11.8406 15.7969L10.3922 17.1891C10.2328 17.3485 10.0969 17.4844 9.7875 17.4844L9.99844 14.4329L15.5625 9.41255C15.8063 9.20161 15.5063 9.07974 15.1875 9.29068L8.31562 13.6172L5.35313 12.6938C4.71094 12.4876 4.69688 12.0516 5.48906 11.7422Z" fill="#E3E3E3"/>
</g>
<defs>
<clipPath id="clip0_726_31179">
<rect width="24" height="24" fill="white"/>
</clipPath>
</defs>
</svg>
