<svg width="24" height="24" viewBox="0 0 24 24" fill="none" xmlns="http://www.w3.org/2000/svg">
<circle cx="12" cy="12" r="12" fill="#0015D5"/>
<g clip-path="url(#clip0_726_30921)">
<path d="M13.7488 4.8667V15.7897C13.7488 16.3522 13.2918 16.8093 12.7293 16.8093H5.86676C5.30426 16.8093 4.84723 16.3522 4.84723 15.7897V4.8667C4.84723 4.3042 5.30426 3.84717 5.86676 3.84717H12.7293C13.2953 3.85068 13.7488 4.3042 13.7488 4.8667Z" fill="#DBDBDB"/>
<path d="M11.8926 9.71113C11.8926 10.9451 10.402 12.0666 9.30162 12.6432C8.20475 12.0842 6.70709 10.9346 6.70709 9.71113C6.70709 8.77598 7.35045 8.0166 8.1485 8.0166C8.78483 8.0166 9.30162 8.6248 9.30162 9.37363C9.30162 9.26465 9.31217 9.1627 9.33326 9.06074C9.4528 8.46309 9.90983 8.0166 10.4547 8.0166C11.2458 8.0166 11.8926 8.77598 11.8926 9.71113Z" fill="#F34624"/>
<path d="M7.04811 5.025C7.04811 5.38711 6.61217 5.71758 6.28873 5.88281C5.96881 5.72109 5.52936 5.38359 5.52936 5.025C5.52936 4.75078 5.7192 4.5293 5.95123 4.5293C6.13756 4.5293 6.28873 4.70859 6.28873 4.92656C6.28873 4.89492 6.29225 4.86328 6.29928 4.83516C6.33444 4.65938 6.46803 4.5293 6.62623 4.5293C6.85826 4.5293 7.04811 4.75078 7.04811 5.025Z" fill="#F34624"/>
<path d="M13.0704 15.2696C13.0704 15.6317 12.6344 15.9622 12.311 16.1274C11.9911 15.9657 11.5516 15.6282 11.5516 15.2696C11.5516 14.9954 11.7414 14.7739 11.9735 14.7739C12.1598 14.7739 12.311 14.9532 12.311 15.1712C12.311 15.1396 12.3145 15.1079 12.3215 15.0798C12.3567 14.904 12.4903 14.7739 12.6485 14.7739C12.8805 14.7739 13.0704 14.9954 13.0704 15.2696Z" fill="#F34624"/>
<path d="M16.3152 20.0963L9.81132 17.9025C9.27694 17.7232 8.99218 17.1432 9.17147 16.6123L12.6625 6.26231C12.8418 5.72793 13.4219 5.44317 13.9527 5.62246L20.4566 7.81621C20.991 7.99551 21.2758 8.57559 21.0965 9.10645L17.6055 19.4564C17.4262 19.9908 16.8461 20.2756 16.3152 20.0963Z" fill="#EDEDED"/>
<path d="M15.1165 13.8143L14.8528 14.5982L15.6262 14.8584C15.8161 14.9217 15.9145 15.1256 15.8512 15.3154C15.7879 15.5053 15.584 15.6072 15.3942 15.5404L13.2989 14.8338C13.109 14.7705 13.0106 14.5666 13.0739 14.3768C13.1372 14.1869 13.3411 14.0885 13.5309 14.1518L14.3044 14.4119L14.568 13.6279C14.3571 13.7439 14.118 13.7791 13.8895 13.7018C12.8208 13.3396 12.4692 11.0545 15.918 10.5342C16.5965 11.2373 17.4262 12.4572 17.1169 13.3783C16.8813 14.0779 16.2063 14.4822 15.6122 14.2818C15.3872 14.2045 15.2149 14.0322 15.1165 13.8143Z" fill="#2C3642"/>
<path d="M13.886 7.7918L13.777 8.11875L14.0969 8.22773C14.1742 8.25586 14.2164 8.34023 14.1918 8.41758C14.1637 8.49492 14.0793 8.53711 14.002 8.5125L13.1301 8.21719C13.0528 8.18906 13.0106 8.10469 13.0352 8.02734C13.0633 7.95 13.1477 7.90781 13.225 7.93242L13.5449 8.04141L13.6539 7.71445C13.566 7.76367 13.4676 7.77773 13.3727 7.74609C12.9297 7.59492 12.7821 6.6457 14.2164 6.42773C14.4977 6.71953 14.8422 7.22578 14.7156 7.60898C14.6172 7.90078 14.336 8.06953 14.0899 7.98516C13.9985 7.95703 13.9281 7.8832 13.886 7.7918Z" fill="#2C3642"/>
<path d="M16.368 18.7186L16.259 19.0455L16.5789 19.1545C16.6563 19.1826 16.6985 19.267 16.6738 19.3443C16.6457 19.4217 16.5613 19.4639 16.484 19.4393L15.6121 19.1439C15.5348 19.1158 15.4926 19.0314 15.5172 18.9541C15.5453 18.8768 15.6297 18.8346 15.707 18.8592L16.027 18.9682L16.136 18.6412C16.0481 18.6904 15.9496 18.7045 15.8547 18.6729C15.4117 18.5217 15.2641 17.5725 16.6985 17.3545C16.9797 17.6463 17.3242 18.1525 17.1977 18.5357C17.0992 18.8275 16.818 18.9963 16.5719 18.9119C16.4805 18.8838 16.4067 18.81 16.368 18.7186Z" fill="#2C3642"/>
</g>
<defs>
<clipPath id="clip0_726_30921">
<rect width="18" height="18" fill="white" transform="translate(4 3)"/>
</clipPath>
</defs>
</svg>
