<svg width="24" height="24" viewBox="0 0 24 24" fill="none" xmlns="http://www.w3.org/2000/svg">
<circle cx="12" cy="12" r="12" fill="#3A0978"/>
<g clip-path="url(#clip0_726_31033)">
<path d="M17.1117 6.08496H6.88828L3.28125 9.69199L12 19.9154L20.7188 9.69199L17.1117 6.08496Z" fill="#00C3FF"/>
<path d="M17.1117 6.08496L12 19.9154L20.7188 9.69199L17.1117 6.08496Z" fill="#87DAFF"/>
<path d="M6.88828 6.08496L8.22422 9.69199H3.28125L6.88828 6.08496Z" fill="#00AAF0"/>
<path d="M12 6.08496L8.22418 9.69199H15.7757L12 6.08496Z" fill="#87DAFF"/>
<path d="M15.7758 9.69199H20.7188L17.1118 6.08496L15.7758 9.69199Z" fill="#A5E9FF"/>
<path d="M3.28125 9.69189H8.22422L12 19.9153L3.28125 9.69189Z" fill="#0096DC"/>
<path d="M20.9191 9.49502L17.3086 5.88799C17.2559 5.83525 17.1855 5.80713 17.1082 5.80713H6.88828C6.81445 5.80713 6.74062 5.83525 6.68789 5.88799L3.08086 9.49502C2.97539 9.60049 2.97187 9.76572 3.06679 9.87822L11.7855 20.0981C11.8383 20.1614 11.9191 20.1966 12 20.1966C12.0809 20.1966 12.1617 20.1614 12.2145 20.0981L20.9332 9.87822C21.0281 9.76572 21.0211 9.59697 20.9191 9.49502ZM6.77578 6.59463L7.8164 9.41064H3.96328L6.77578 6.59463ZM7.29258 6.36611H11.2969L8.34375 9.20674L7.29258 6.36611ZM8.02734 9.97666L8.40351 10.9962C8.4457 11.1087 8.55469 11.179 8.66719 11.179C8.69883 11.179 8.73398 11.172 8.76562 11.1614C8.91328 11.1087 8.98711 10.947 8.93086 10.7993L8.625 9.97666H14.1023C14.257 9.97666 14.3836 9.8501 14.3836 9.69541C14.3836 9.54072 14.257 9.41416 14.1023 9.41416H8.9414L12 6.47861L15.4453 9.7833L12 19.1032L9.37734 12.0017C9.32461 11.854 9.16289 11.7802 9.01523 11.8364C8.86758 11.8892 8.79375 12.0509 8.85 12.1985L11.1914 18.5302L3.89297 9.97666H8.02734ZM15.9727 9.97666H20.107L12.8121 18.5267L15.9727 9.97666ZM16.1836 9.41064L16.4895 8.58799C16.5422 8.44033 16.4684 8.27861 16.3242 8.22588C16.1766 8.17314 16.0148 8.24697 15.9621 8.39111L15.6633 9.20322L12.7066 6.36611H16.7109L16.4051 7.18877C16.3523 7.33643 16.4262 7.49814 16.5703 7.55088C16.602 7.56143 16.6371 7.56846 16.6687 7.56846C16.7848 7.56846 16.8902 7.49814 16.9324 7.38564L17.2242 6.59463L20.0402 9.41064H16.1836Z" fill="#E3E3E3"/>
</g>
<defs>
<clipPath id="clip0_726_31033">
<rect width="18" height="18" fill="white" transform="translate(3 4)"/>
</clipPath>
</defs>
</svg>
