<svg width="24" height="24" viewBox="0 0 24 24" fill="none" xmlns="http://www.w3.org/2000/svg">
<circle cx="12" cy="12" r="12" fill="#352828"/>
<path d="M14.25 11.1562H14.8125C16.6758 11.1562 18.1875 9.64453 18.1875 7.78125V7.21875H15.9375V6.09375H18.75C19.0594 6.09375 19.3125 6.34687 19.3125 6.65625V7.78125C19.3125 10.2668 17.298 12.2812 14.8125 12.2812H14.25V11.1562Z" fill="#F9AF78"/>
<path d="M9.75 11.1562H9.1875C7.32422 11.1562 5.8125 9.64453 5.8125 7.78125V7.21875H8.0625V6.09375H5.25C4.94062 6.09375 4.6875 6.34687 4.6875 6.65625V7.78125C4.6875 10.2668 6.70195 12.2812 9.1875 12.2812H9.75V11.1562Z" fill="#F9AF78"/>
<path d="M10.5938 12.8438H13.4062V15.0938H10.5938V12.8438Z" fill="#EA7721"/>
<path d="M12 13.9688C7.5 13.9688 7.5 4.96875 7.5 4.96875H16.5C16.5 4.96875 16.5 13.9688 12 13.9688Z" fill="#FF9436"/>
<path d="M16.5 4.96875H7.5C7.19062 4.96875 6.9375 4.71562 6.9375 4.40625C6.9375 4.09687 7.19062 3.84375 7.5 3.84375H16.5C16.8094 3.84375 17.0625 4.09687 17.0625 4.40625C17.0625 4.71562 16.8094 4.96875 16.5 4.96875Z" fill="#F9AF78"/>
<path d="M12.8438 16.2188V15.0938H11.1562V16.2188C11.1562 16.841 10.6535 17.3438 10.0312 17.3438C9.40898 17.3438 8.90625 17.8465 8.90625 18.4688H15.0938C15.0938 17.8465 14.591 17.3438 13.9688 17.3438C13.3465 17.3438 12.8438 16.841 12.8438 16.2188Z" fill="#FF9436"/>
<path d="M7.78125 18.4688H16.2188V20.1562H7.78125V18.4688Z" fill="#EA7721"/>
</svg>
