<svg width="24" height="24" viewBox="0 0 24 24" fill="none" xmlns="http://www.w3.org/2000/svg">
<g clip-path="url(#clip0_726_30835)">
<path d="M24 12C24 15.5109 22.4906 18.6703 20.0859 20.8641C17.9531 22.8141 15.1172 24 12 24C8.88281 24 6.04688 22.8141 3.91406 20.8641C1.50938 18.6703 0 15.5109 0 12C0 5.37188 5.37188 0 12 0C18.6281 0 24 5.37188 24 12Z" fill="#FCB042"/>
<path d="M24 12C24 15.5109 22.4906 18.6703 20.0859 20.8641C17.9531 22.8141 15.1172 24 12 24V0C18.6281 0 24 5.37188 24 12Z" fill="#FF9436"/>
<path d="M20.0859 20.8171V20.864C17.9531 22.814 15.1172 24 12 24C8.88281 24 6.04688 22.814 3.91406 20.864V20.8171C3.91406 17.339 6.11719 14.3671 9.20625 13.2281C10.0781 12.9046 11.0203 12.7312 12 12.7312C12.9797 12.7312 13.9266 12.9093 14.7984 13.2281C17.8828 14.3718 20.0859 17.3437 20.0859 20.8171Z" fill="#5BC3EB"/>
<path d="M20.0859 20.8171V20.864C17.9531 22.814 15.1172 24 12 24V12.7312C12.9844 12.7312 13.9266 12.9093 14.7984 13.2281C17.8828 14.3718 20.0859 17.3437 20.0859 20.8171Z" fill="#00ABE0"/>
<path d="M16.9594 9.13589C16.9594 11.8687 14.7328 14.0953 12 14.0953C9.26719 14.0953 7.04062 11.8687 7.04062 9.13589C7.04062 6.40308 9.26719 4.17651 12 4.17651C14.7375 4.17651 16.9594 6.40308 16.9594 9.13589Z" fill="#FFDBA9"/>
<path d="M16.9594 9.13589C16.9594 11.8687 14.7328 14.0953 12 14.0953V4.17651C14.7375 4.17651 16.9594 6.40308 16.9594 9.13589Z" fill="#FFC473"/>
</g>
<defs>
<clipPath id="clip0_726_30835">
<rect width="24" height="24" fill="white"/>
</clipPath>
</defs>
</svg>
